<?xml version="1.0" encoding="UTF-8"?>
<svg id="Layer_1" data-name="Layer 1" xmlns="http://www.w3.org/2000/svg" version="1.1" viewBox="0 0 16 16">
  <defs>
    <style>
      .cls-1 {
        fill: #ebba34;
        stroke: #708090;
        stroke-miterlimit: 10;
        stroke-width: 0px;
      }
    </style>
  </defs>
  <path class="cls-1" d="M8.7,2.7l1,3c.1.3.4.5.7.5h3.2c.7,0,1.1,1,.5,1.4l-2.6,1.9c-.3.2-.4.5-.3.9l1,3c.2.7-.6,1.3-1.2.9l-2.5-1.9c-.3-.2-.6-.2-.9,0l-2.6,1.9c-.6.4-1.4-.2-1.2-.9l1-3c.1-.3,0-.7-.3-.9l-2.6-1.9c-.6-.4-.3-1.4.5-1.4h3.2c.3,0,.6-.2.7-.5l1-3c.2-.7,1.2-.7,1.5,0Z"/>
</svg>