<?xml version="1.0" encoding="utf-8"?>
<!-- Generator: Adobe Adobe Illustrator 24.2.0, SVG Export Plug-In . SVG Version: 6.00 Build 0)  -->
<svg version="1.1"  id="Layer_2" xmlns="http://www.w3.org/2000/svg" xmlns:xlink="http://www.w3.org/1999/xlink" x="0px" y="0px"
	 viewBox="0 0 16 16" style="enable-background:new 0 0 16 16;" xml:space="preserve">
<style type="text/css">
	.st1{fill:transparent;stroke:black;stroke-width:0.5534;stroke-miterlimit:10;}
</style>
	<path class="st1" d="M8.7,2.7l1,3c.1.3.4.5.7.5h3.2c.7,0,1.1,1,.5,1.4l-2.6,1.9c-.3.2-.4.5-.3.9l1,3c.2.7-.6,1.3-1.2.9l-2.5-1.9c-.3-.2-.6-.2-.9,0l-2.6,1.9c-.6.4-1.4-.2-1.2-.9l1-3c.1-.3,0-.7-.3-.9l-2.6-1.9c-.6-.4-.3-1.4.5-1.4h3.2c.3,0,.6-.2.7-.5l1-3c.2-.7,1.2-.7,1.5,0Z"/>
</svg>

