<?xml version="1.0" standalone="no"?>
<!DOCTYPE svg PUBLIC "-//W3C//DTD SVG 20010904//EN"
 "http://www.w3.org/TR/2001/REC-SVG-20010904/DTD/svg10.dtd">
<svg version="1.0" xmlns="http://www.w3.org/2000/svg"
 width="807.000000pt" height="807.000000pt" viewBox="0 0 807.000000 807.000000"
 preserveAspectRatio="xMidYMid meet">

<g transform="translate(0.000000,807.000000) scale(0.100000,-0.100000)"
fill="#000000" stroke="none">
<path d="M0 4035 l0 -4035 4035 0 4035 0 0 4035 0 4035 -4035 0 -4035 0 0
-4035z m4195 3560 c119 -181 260 -396 313 -477 54 -82 165 -251 247 -376 83
-125 220 -335 305 -465 85 -131 227 -347 315 -481 88 -134 193 -294 234 -357
41 -63 134 -204 206 -314 73 -110 162 -247 200 -305 38 -58 127 -195 200 -305
337 -514 338 -515 329 -534 -9 -19 -182 -286 -384 -591 -60 -91 -123 -187
-140 -215 -17 -27 -83 -130 -148 -227 -64 -98 -256 -390 -427 -650 -170 -260
-378 -576 -461 -703 -236 -361 -318 -486 -452 -690 -69 -104 -178 -271 -243
-370 -108 -165 -290 -442 -314 -479 -8 -12 -59 60 -243 342 -129 196 -333 508
-453 692 -121 184 -275 418 -341 520 -183 279 -279 426 -413 630 -67 102 -194
295 -282 430 -88 135 -216 331 -285 435 -68 105 -149 228 -180 275 -30 47
-113 173 -183 280 -164 250 -215 329 -215 335 0 2 51 82 113 177 62 95 149
227 192 293 43 66 129 197 190 290 61 94 136 208 167 255 60 92 199 304 396
605 69 105 202 307 295 450 94 143 222 339 285 435 63 96 153 234 200 305 47
72 127 193 177 270 51 77 136 208 190 290 293 450 379 575 386 568 4 -4 105
-156 224 -338z"/>
<path d="M3910 7608 c-67 -103 -324 -497 -907 -1391 -166 -254 -367 -563 -448
-687 -81 -124 -244 -375 -363 -557 -119 -183 -311 -477 -426 -653 -131 -202
-206 -326 -202 -335 3 -9 127 -201 274 -428 148 -227 304 -466 347 -532 43
-66 310 -475 593 -910 284 -434 615 -943 737 -1130 405 -622 447 -685 455
-680 4 3 58 83 119 177 116 179 193 297 360 553 54 83 132 202 173 265 73 111
858 1316 1049 1610 52 80 162 248 244 375 83 126 220 337 306 469 l157 240
-52 80 c-29 45 -91 140 -138 211 -80 122 -215 330 -521 800 -233 358 -337 517
-444 680 -58 88 -228 349 -378 580 -150 231 -320 492 -378 580 -57 88 -153
234 -212 325 -211 324 -288 440 -290 440 -1 0 -26 -37 -55 -82z m1420 -2324
l0 -287 -59 6 c-33 3 -64 8 -70 12 -7 4 -11 56 -11 141 l0 134 -328 0 c-181 0
-613 3 -960 7 -409 4 -632 3 -632 -3 0 -6 73 -73 162 -150 90 -76 220 -188
289 -249 69 -60 222 -193 339 -294 l213 -184 -41 -19 c-80 -38 -123 -102 -157
-234 -2 -6 -16 -11 -31 -10 -24 1 -29 7 -40 48 -26 103 -104 190 -195 217 -39
12 -111 79 -943 885 l-258 251 753 5 c415 3 1027 6 1362 8 l607 2 0 -286z
m-1529 -904 c82 -23 148 -96 164 -183 l7 -37 -111 0 c-68 0 -111 4 -111 10 0
7 -111 9 -327 8 l-328 -3 0 -175 0 -175 60 -6 c33 -4 178 -7 323 -8 229 -1
263 1 269 15 5 12 23 15 102 13 53 -1 101 -4 108 -6 8 -3 10 -16 6 -36 -14
-72 -64 -137 -135 -173 l-49 -25 -363 3 -363 3 -56 37 c-34 23 -66 55 -81 80
-24 41 -26 54 -32 244 -6 173 -5 207 10 251 28 85 102 156 179 172 46 10 689
2 728 -9z m1220 9 c68 -15 137 -81 166 -160 19 -50 20 -68 14 -264 -6 -201 -7
-212 -31 -245 -33 -47 -57 -68 -112 -96 -47 -24 -47 -24 -400 -24 -401 0 -401
0 -477 86 -38 43 -69 122 -56 143 4 7 45 11 104 11 78 0 101 -3 112 -16 12
-14 47 -16 320 -12 239 2 310 6 323 17 14 11 16 37 16 170 0 109 -4 161 -12
169 -15 15 -644 17 -653 2 -3 -6 -52 -10 -111 -10 l-104 0 0 25 c0 34 26 94
53 123 12 13 42 36 67 50 l45 27 320 5 c176 3 330 7 342 8 12 1 45 -3 74 -9z
m-484 -309 c59 -46 67 -94 25 -155 l-28 -40 -469 -3 c-429 -3 -473 -2 -502 14
-70 37 -84 105 -36 174 l28 41 477 -5 c472 -4 478 -4 505 -26z m-449 -307 c16
-76 64 -141 128 -173 27 -14 51 -26 54 -28 3 -2 -3 -10 -13 -17 -10 -7 -60
-49 -110 -93 -292 -254 -468 -407 -660 -572 -119 -102 -216 -188 -216 -192 -1
-10 1542 -10 1761 -1 l157 6 3 136 3 136 63 5 c35 3 65 3 68 1 2 -2 4 -130 4
-283 l0 -278 -1302 1 c-717 1 -1329 4 -1362 8 l-58 6 493 475 c686 662 665
643 716 662 94 35 164 113 184 204 12 51 14 54 44 54 30 0 31 -2 43 -57z"/>
</g>
</svg>
